<mxfile host="Electron" modified="2023-11-23T09:52:58.494Z" agent="Mozilla/5.0 (X11; Linux x86_64) AppleWebKit/537.36 (KHTML, like Gecko) draw.io/22.1.2 Chrome/114.0.5735.289 Electron/25.9.4 Safari/537.36" etag="RnY4Iup-xCWbigESWwtR" version="22.1.2" type="device">
  <diagram id="C5RBs43oDa-KdzZeNtuy" name="Page-1">
    <mxGraphModel dx="1744" dy="876" grid="1" gridSize="10" guides="1" tooltips="1" connect="1" arrows="1" fold="1" page="1" pageScale="1" pageWidth="10000" pageHeight="10000" math="0" shadow="0">
      <root>
        <mxCell id="WIyWlLk6GJQsqaUBKTNV-0" />
        <mxCell id="WIyWlLk6GJQsqaUBKTNV-1" parent="WIyWlLk6GJQsqaUBKTNV-0" />
        <mxCell id="-seAESRT9o7vdsMmAVrN-0" style="edgeStyle=orthogonalEdgeStyle;rounded=0;sketch=1;hachureGap=4;jiggle=2;curveFitting=1;orthogonalLoop=1;jettySize=auto;html=1;exitX=0.5;exitY=1;exitDx=0;exitDy=0;fontFamily=Architects Daughter;fontSource=https%3A%2F%2Ffonts.googleapis.com%2Fcss%3Ffamily%3DArchitects%2BDaughter;fontSize=16;entryX=0.5;entryY=0;entryDx=0;entryDy=0;fontStyle=1" parent="WIyWlLk6GJQsqaUBKTNV-1" source="-seAESRT9o7vdsMmAVrN-1" target="-seAESRT9o7vdsMmAVrN-4" edge="1">
          <mxGeometry relative="1" as="geometry">
            <mxPoint x="1260" y="930" as="targetPoint" />
          </mxGeometry>
        </mxCell>
        <mxCell id="-seAESRT9o7vdsMmAVrN-1" value="&lt;font data-font-src=&quot;https://fonts.googleapis.com/css?family=Architects+Daughter&quot; style=&quot;font-size: 15px;&quot;&gt;Have:&lt;br style=&quot;font-size: 15px;&quot;&gt;&lt;/font&gt;&lt;div style=&quot;text-align: left; font-size: 15px;&quot;&gt;&lt;font data-font-src=&quot;https://fonts.googleapis.com/css?family=Architects+Daughter&quot; style=&quot;font-size: 15px;&quot;&gt;&lt;span style=&quot;background-color: initial; font-size: 15px;&quot;&gt;1. A dynamic maze&lt;/span&gt;&lt;span style=&quot;background-color: initial; white-space: pre; font-size: 15px;&quot;&gt;&#x9;&lt;/span&gt;&lt;span style=&quot;background-color: initial; white-space: pre; font-size: 15px;&quot;&gt;&#x9;&lt;span style=&quot;white-space: pre; font-size: 15px;&quot;&gt;&#x9;&lt;/span&gt;&lt;/span&gt;&lt;span style=&quot;background-color: initial; font-size: 15px;&quot;&gt;2. &lt;/span&gt;&lt;span style=&quot;background-color: initial; font-size: 15px;&quot;&gt;A (or many) start point&lt;/span&gt;&lt;span style=&quot;background-color: initial; white-space: pre; font-size: 15px;&quot;&gt;&#x9;&lt;/span&gt;&lt;/font&gt;&lt;/div&gt;&lt;div style=&quot;text-align: left; font-size: 15px;&quot;&gt;&lt;font data-font-src=&quot;https://fonts.googleapis.com/css?family=Architects+Daughter&quot; style=&quot;font-size: 15px;&quot;&gt;&lt;span style=&quot;background-color: initial; font-size: 15px;&quot;&gt;3. A (or many) end point&lt;/span&gt;&lt;span style=&quot;background-color: initial; white-space: pre; font-size: 15px;&quot;&gt;&#x9;&lt;/span&gt;&lt;span style=&quot;background-color: initial; white-space: pre; font-size: 15px;&quot;&gt;&#x9;&lt;/span&gt;&lt;span style=&quot;background-color: initial; font-size: 15px;&quot;&gt;4.&amp;nbsp;&lt;/span&gt;&lt;span style=&quot;background-color: initial; font-size: 15px;&quot;&gt;Many objects move&lt;/span&gt;&lt;/font&gt;&lt;/div&gt;&lt;div style=&quot;font-size: 15px;&quot;&gt;&lt;span style=&quot;background-color: initial; font-size: 15px;&quot;&gt;&lt;font data-font-src=&quot;https://fonts.googleapis.com/css?family=Architects+Daughter&quot; style=&quot;font-size: 15px;&quot;&gt;&lt;br style=&quot;font-size: 15px;&quot;&gt;&lt;/font&gt;&lt;/span&gt;&lt;/div&gt;&lt;div style=&quot;font-size: 15px;&quot;&gt;&lt;span style=&quot;background-color: initial; font-size: 15px;&quot;&gt;&lt;font data-font-src=&quot;https://fonts.googleapis.com/css?family=Architects+Daughter&quot; style=&quot;font-size: 15px;&quot;&gt;Conditions:&lt;/font&gt;&lt;/span&gt;&lt;/div&gt;&lt;div style=&quot;font-size: 15px;&quot;&gt;&lt;span style=&quot;background-color: initial; font-size: 15px;&quot;&gt;&lt;font data-font-src=&quot;https://fonts.googleapis.com/css?family=Architects+Daughter&quot; style=&quot;font-size: 15px;&quot;&gt;1. Number objects reach end point is MAX&lt;/font&gt;&lt;/span&gt;&lt;/div&gt;&lt;div style=&quot;font-size: 15px;&quot;&gt;&lt;span style=&quot;background-color: initial; font-size: 15px;&quot;&gt;&lt;font data-font-src=&quot;https://fonts.googleapis.com/css?family=Architects+Daughter&quot; style=&quot;font-size: 15px;&quot;&gt;2. Make most objects reach end point in MIN time&lt;/font&gt;&lt;/span&gt;&lt;/div&gt;" style="ellipse;whiteSpace=wrap;html=1;labelBackgroundColor=none;rounded=0;fontFamily=Architects Daughter;fontSource=https%3A%2F%2Ffonts.googleapis.com%2Fcss%3Ffamily%3DArchitects%2BDaughter;fontSize=15;shadow=0;sketch=1;curveFitting=1;jiggle=2;fontStyle=1" parent="WIyWlLk6GJQsqaUBKTNV-1" vertex="1">
          <mxGeometry x="1020" y="450" width="480" height="200" as="geometry" />
        </mxCell>
        <mxCell id="-seAESRT9o7vdsMmAVrN-2" style="edgeStyle=orthogonalEdgeStyle;rounded=0;sketch=1;hachureGap=4;jiggle=2;curveFitting=1;orthogonalLoop=1;jettySize=auto;html=1;exitX=0.5;exitY=1;exitDx=0;exitDy=0;entryX=0.5;entryY=0;entryDx=0;entryDy=0;fontFamily=Architects Daughter;fontSource=https%3A%2F%2Ffonts.googleapis.com%2Fcss%3Ffamily%3DArchitects%2BDaughter;fontSize=16;fontStyle=1" parent="WIyWlLk6GJQsqaUBKTNV-1" source="-seAESRT9o7vdsMmAVrN-4" target="-seAESRT9o7vdsMmAVrN-7" edge="1">
          <mxGeometry relative="1" as="geometry" />
        </mxCell>
        <mxCell id="-seAESRT9o7vdsMmAVrN-3" style="edgeStyle=none;curved=1;rounded=0;sketch=1;hachureGap=4;jiggle=2;curveFitting=1;orthogonalLoop=1;jettySize=auto;html=1;exitX=1;exitY=0.5;exitDx=0;exitDy=0;entryX=0;entryY=0.5;entryDx=0;entryDy=0;fontFamily=Architects Daughter;fontSource=https%3A%2F%2Ffonts.googleapis.com%2Fcss%3Ffamily%3DArchitects%2BDaughter;fontSize=16;startSize=8;endSize=8;fontStyle=1" parent="WIyWlLk6GJQsqaUBKTNV-1" source="-seAESRT9o7vdsMmAVrN-4" target="-seAESRT9o7vdsMmAVrN-8" edge="1">
          <mxGeometry relative="1" as="geometry" />
        </mxCell>
        <mxCell id="-seAESRT9o7vdsMmAVrN-4" value="Use A* and ACO on Static Maze&amp;nbsp;&lt;br style=&quot;font-size: 15px;&quot;&gt;1. Optimize Path from A*&lt;br style=&quot;font-size: 15px;&quot;&gt;2. Pheromone Map about Maze from ACO" style="ellipse;whiteSpace=wrap;html=1;sketch=1;hachureGap=4;jiggle=2;curveFitting=1;fontFamily=Architects Daughter;fontSource=https%3A%2F%2Ffonts.googleapis.com%2Fcss%3Ffamily%3DArchitects%2BDaughter;fontSize=15;fontStyle=1" parent="WIyWlLk6GJQsqaUBKTNV-1" vertex="1">
          <mxGeometry x="1100" y="690" width="320" height="120" as="geometry" />
        </mxCell>
        <mxCell id="-seAESRT9o7vdsMmAVrN-5" style="edgeStyle=none;curved=1;rounded=0;sketch=1;hachureGap=4;jiggle=2;curveFitting=1;orthogonalLoop=1;jettySize=auto;html=1;exitX=0.5;exitY=1;exitDx=0;exitDy=0;entryX=0.5;entryY=0;entryDx=0;entryDy=0;fontFamily=Architects Daughter;fontSource=https%3A%2F%2Ffonts.googleapis.com%2Fcss%3Ffamily%3DArchitects%2BDaughter;fontSize=16;startSize=8;endSize=8;fontStyle=1" parent="WIyWlLk6GJQsqaUBKTNV-1" source="-seAESRT9o7vdsMmAVrN-7" target="-seAESRT9o7vdsMmAVrN-14" edge="1">
          <mxGeometry relative="1" as="geometry" />
        </mxCell>
        <mxCell id="-seAESRT9o7vdsMmAVrN-6" style="edgeStyle=none;curved=1;rounded=0;sketch=1;hachureGap=4;jiggle=2;curveFitting=1;orthogonalLoop=1;jettySize=auto;html=1;exitX=0.5;exitY=1;exitDx=0;exitDy=0;entryX=0.5;entryY=0;entryDx=0;entryDy=0;fontFamily=Architects Daughter;fontSource=https%3A%2F%2Ffonts.googleapis.com%2Fcss%3Ffamily%3DArchitects%2BDaughter;fontSize=16;startSize=8;endSize=8;fontStyle=1" parent="WIyWlLk6GJQsqaUBKTNV-1" source="-seAESRT9o7vdsMmAVrN-7" target="-seAESRT9o7vdsMmAVrN-11" edge="1">
          <mxGeometry relative="1" as="geometry" />
        </mxCell>
        <mxCell id="-seAESRT9o7vdsMmAVrN-7" value="&lt;font style=&quot;font-size: 15px;&quot;&gt;Make objects &quot;move like ants&quot; with pheromone map and optimize path in static maze =&amp;gt; incresing probility can have good choose&lt;/font&gt;" style="ellipse;whiteSpace=wrap;html=1;sketch=1;hachureGap=4;jiggle=2;curveFitting=1;fontFamily=Architects Daughter;fontSource=https%3A%2F%2Ffonts.googleapis.com%2Fcss%3Ffamily%3DArchitects%2BDaughter;fontSize=15;fontStyle=1;fillColor=#66CC00;strokeColor=#82b366;" parent="WIyWlLk6GJQsqaUBKTNV-1" vertex="1">
          <mxGeometry x="1100" y="850" width="320" height="120" as="geometry" />
        </mxCell>
        <mxCell id="-seAESRT9o7vdsMmAVrN-8" value="Use A* search the optimize path" style="ellipse;whiteSpace=wrap;html=1;hachureGap=4;fontFamily=Architects Daughter;fontSource=https%3A%2F%2Ffonts.googleapis.com%2Fcss%3Ffamily%3DArchitects%2BDaughter;fontSize=15;fontStyle=1;labelBackgroundColor=none;labelBorderColor=none;sketch=1;curveFitting=1;jiggle=2;fillColor=#f8cecc;strokeColor=#b85450;" parent="WIyWlLk6GJQsqaUBKTNV-1" vertex="1">
          <mxGeometry x="1490" y="650" width="160" height="80" as="geometry" />
        </mxCell>
        <mxCell id="-seAESRT9o7vdsMmAVrN-9" value="Use ACO get the pheromone map" style="ellipse;whiteSpace=wrap;html=1;sketch=1;hachureGap=4;jiggle=2;curveFitting=1;fontFamily=Architects Daughter;fontSource=https%3A%2F%2Ffonts.googleapis.com%2Fcss%3Ffamily%3DArchitects%2BDaughter;fontSize=15;fontStyle=1;fillColor=#FFFF00;strokeColor=#d6b656;" parent="WIyWlLk6GJQsqaUBKTNV-1" vertex="1">
          <mxGeometry x="1490" y="765" width="160" height="80" as="geometry" />
        </mxCell>
        <mxCell id="-seAESRT9o7vdsMmAVrN-10" style="edgeStyle=none;curved=1;rounded=0;sketch=1;hachureGap=4;jiggle=2;curveFitting=1;orthogonalLoop=1;jettySize=auto;html=1;exitX=0.5;exitY=1;exitDx=0;exitDy=0;entryX=0.5;entryY=0;entryDx=0;entryDy=0;fontFamily=Architects Daughter;fontSource=https%3A%2F%2Ffonts.googleapis.com%2Fcss%3Ffamily%3DArchitects%2BDaughter;fontSize=16;startSize=8;endSize=8;fontStyle=1" parent="WIyWlLk6GJQsqaUBKTNV-1" source="-seAESRT9o7vdsMmAVrN-11" target="-seAESRT9o7vdsMmAVrN-15" edge="1">
          <mxGeometry relative="1" as="geometry" />
        </mxCell>
        <mxCell id="-seAESRT9o7vdsMmAVrN-11" value="&lt;font style=&quot;font-size: 15px;&quot;&gt;Update maze&lt;br&gt;&lt;/font&gt;" style="ellipse;whiteSpace=wrap;html=1;sketch=1;hachureGap=4;jiggle=2;curveFitting=1;fontFamily=Architects Daughter;fontSource=https%3A%2F%2Ffonts.googleapis.com%2Fcss%3Ffamily%3DArchitects%2BDaughter;fontSize=20;fontStyle=1;" parent="WIyWlLk6GJQsqaUBKTNV-1" vertex="1">
          <mxGeometry x="1060" y="1010" width="160" height="80" as="geometry" />
        </mxCell>
        <mxCell id="-seAESRT9o7vdsMmAVrN-12" value="" style="edgeStyle=none;curved=1;rounded=0;sketch=1;hachureGap=4;jiggle=2;curveFitting=1;orthogonalLoop=1;jettySize=auto;html=1;fontFamily=Architects Daughter;fontSource=https%3A%2F%2Ffonts.googleapis.com%2Fcss%3Ffamily%3DArchitects%2BDaughter;fontSize=16;startSize=8;endSize=8;fontStyle=1" parent="WIyWlLk6GJQsqaUBKTNV-1" source="-seAESRT9o7vdsMmAVrN-14" target="-seAESRT9o7vdsMmAVrN-16" edge="1">
          <mxGeometry relative="1" as="geometry" />
        </mxCell>
        <mxCell id="-seAESRT9o7vdsMmAVrN-13" style="edgeStyle=none;curved=1;rounded=0;sketch=1;hachureGap=4;jiggle=2;curveFitting=1;orthogonalLoop=1;jettySize=auto;html=1;exitX=0.5;exitY=1;exitDx=0;exitDy=0;entryX=0.5;entryY=0;entryDx=0;entryDy=0;fontFamily=Architects Daughter;fontSource=https%3A%2F%2Ffonts.googleapis.com%2Fcss%3Ffamily%3DArchitects%2BDaughter;fontSize=16;startSize=8;endSize=8;fontStyle=1" parent="WIyWlLk6GJQsqaUBKTNV-1" source="-seAESRT9o7vdsMmAVrN-14" target="-seAESRT9o7vdsMmAVrN-15" edge="1">
          <mxGeometry relative="1" as="geometry" />
        </mxCell>
        <mxCell id="-seAESRT9o7vdsMmAVrN-14" value="&lt;font style=&quot;font-size: 15px;&quot;&gt;Move objects&lt;/font&gt;" style="ellipse;whiteSpace=wrap;html=1;sketch=1;hachureGap=4;jiggle=2;curveFitting=1;fontFamily=Architects Daughter;fontSource=https%3A%2F%2Ffonts.googleapis.com%2Fcss%3Ffamily%3DArchitects%2BDaughter;fontSize=20;fontStyle=1" parent="WIyWlLk6GJQsqaUBKTNV-1" vertex="1">
          <mxGeometry x="1300" y="1010" width="160" height="80" as="geometry" />
        </mxCell>
        <mxCell id="-seAESRT9o7vdsMmAVrN-15" value="&lt;font style=&quot;font-size: 15px;&quot;&gt;At the same time&lt;/font&gt;" style="ellipse;whiteSpace=wrap;html=1;sketch=1;hachureGap=4;jiggle=2;curveFitting=1;fontFamily=Architects Daughter;fontSource=https%3A%2F%2Ffonts.googleapis.com%2Fcss%3Ffamily%3DArchitects%2BDaughter;fontSize=20;fontStyle=1" parent="WIyWlLk6GJQsqaUBKTNV-1" vertex="1">
          <mxGeometry x="1180" y="1130" width="160" height="80" as="geometry" />
        </mxCell>
        <mxCell id="-seAESRT9o7vdsMmAVrN-16" value="&lt;font style=&quot;font-size: 15px;&quot;&gt;Probility choose incresing:&lt;br&gt;1. Have pheromone high&lt;br&gt;2. Is a part of the optimize A* path&lt;br&gt;&lt;/font&gt;" style="ellipse;whiteSpace=wrap;html=1;sketch=1;hachureGap=4;jiggle=2;curveFitting=1;fontFamily=Architects Daughter;fontSource=https%3A%2F%2Ffonts.googleapis.com%2Fcss%3Ffamily%3DArchitects%2BDaughter;fontSize=20;fontStyle=1" parent="WIyWlLk6GJQsqaUBKTNV-1" vertex="1">
          <mxGeometry x="1540" y="990" width="360" height="120" as="geometry" />
        </mxCell>
        <mxCell id="-seAESRT9o7vdsMmAVrN-17" style="edgeStyle=none;curved=1;rounded=0;sketch=1;hachureGap=4;jiggle=2;curveFitting=1;orthogonalLoop=1;jettySize=auto;html=1;exitX=1;exitY=0.5;exitDx=0;exitDy=0;entryX=-0.008;entryY=0.617;entryDx=0;entryDy=0;entryPerimeter=0;fontFamily=Architects Daughter;fontSource=https%3A%2F%2Ffonts.googleapis.com%2Fcss%3Ffamily%3DArchitects%2BDaughter;fontSize=16;startSize=8;endSize=8;fontStyle=1" parent="WIyWlLk6GJQsqaUBKTNV-1" source="-seAESRT9o7vdsMmAVrN-4" target="-seAESRT9o7vdsMmAVrN-9" edge="1">
          <mxGeometry relative="1" as="geometry" />
        </mxCell>
        <mxCell id="-seAESRT9o7vdsMmAVrN-18" value="" style="edgeStyle=none;curved=1;rounded=0;sketch=1;hachureGap=4;jiggle=2;curveFitting=1;orthogonalLoop=1;jettySize=auto;html=1;fontFamily=Architects Daughter;fontSource=https%3A%2F%2Ffonts.googleapis.com%2Fcss%3Ffamily%3DArchitects%2BDaughter;fontSize=16;startSize=8;endSize=8;" parent="WIyWlLk6GJQsqaUBKTNV-1" source="-seAESRT9o7vdsMmAVrN-19" target="-seAESRT9o7vdsMmAVrN-23" edge="1">
          <mxGeometry relative="1" as="geometry" />
        </mxCell>
        <mxCell id="-seAESRT9o7vdsMmAVrN-19" value="&lt;font style=&quot;font-size: 15px;&quot;&gt;Result:&lt;br&gt;+ Percent get end point&lt;br&gt;+ Time&lt;br&gt;&lt;/font&gt;" style="ellipse;whiteSpace=wrap;html=1;sketch=1;hachureGap=4;jiggle=2;curveFitting=1;fontFamily=Architects Daughter;fontSource=https%3A%2F%2Ffonts.googleapis.com%2Fcss%3Ffamily%3DArchitects%2BDaughter;fontSize=20;fontStyle=1;fillColor=#00CCCC;strokeColor=#6c8ebf;" parent="WIyWlLk6GJQsqaUBKTNV-1" vertex="1">
          <mxGeometry x="2155" y="1130" width="190" height="80" as="geometry" />
        </mxCell>
        <mxCell id="-seAESRT9o7vdsMmAVrN-20" style="edgeStyle=none;curved=1;rounded=0;sketch=1;hachureGap=4;jiggle=2;curveFitting=1;orthogonalLoop=1;jettySize=auto;html=1;exitX=0;exitY=0.5;exitDx=0;exitDy=0;entryX=1;entryY=0.5;entryDx=0;entryDy=0;fontFamily=Architects Daughter;fontSource=https%3A%2F%2Ffonts.googleapis.com%2Fcss%3Ffamily%3DArchitects%2BDaughter;fontSize=16;startSize=8;endSize=8;" parent="WIyWlLk6GJQsqaUBKTNV-1" source="-seAESRT9o7vdsMmAVrN-23" target="-seAESRT9o7vdsMmAVrN-1" edge="1">
          <mxGeometry relative="1" as="geometry" />
        </mxCell>
        <mxCell id="-seAESRT9o7vdsMmAVrN-21" value="" style="edgeStyle=none;curved=1;rounded=0;sketch=1;hachureGap=4;jiggle=2;curveFitting=1;orthogonalLoop=1;jettySize=auto;html=1;fontFamily=Architects Daughter;fontSource=https%3A%2F%2Ffonts.googleapis.com%2Fcss%3Ffamily%3DArchitects%2BDaughter;fontSize=16;startSize=8;endSize=8;" parent="WIyWlLk6GJQsqaUBKTNV-1" source="-seAESRT9o7vdsMmAVrN-23" target="-seAESRT9o7vdsMmAVrN-25" edge="1">
          <mxGeometry relative="1" as="geometry" />
        </mxCell>
        <mxCell id="-seAESRT9o7vdsMmAVrN-22" value="" style="edgeStyle=none;curved=1;rounded=0;sketch=1;hachureGap=4;jiggle=2;curveFitting=1;orthogonalLoop=1;jettySize=auto;html=1;fontFamily=Architects Daughter;fontSource=https%3A%2F%2Ffonts.googleapis.com%2Fcss%3Ffamily%3DArchitects%2BDaughter;fontSize=16;startSize=8;endSize=8;" parent="WIyWlLk6GJQsqaUBKTNV-1" source="-seAESRT9o7vdsMmAVrN-23" target="-seAESRT9o7vdsMmAVrN-26" edge="1">
          <mxGeometry relative="1" as="geometry" />
        </mxCell>
        <mxCell id="-seAESRT9o7vdsMmAVrN-23" value="&lt;font style=&quot;font-size: 15px;&quot;&gt;GUII:&lt;br&gt;REACTJS&lt;br&gt;&lt;/font&gt;" style="ellipse;whiteSpace=wrap;html=1;sketch=1;hachureGap=4;jiggle=2;curveFitting=1;fontFamily=Architects Daughter;fontSource=https%3A%2F%2Ffonts.googleapis.com%2Fcss%3Ffamily%3DArchitects%2BDaughter;fontSize=20;fontStyle=1;fillColor=#66CC00;strokeColor=#82b366;" parent="WIyWlLk6GJQsqaUBKTNV-1" vertex="1">
          <mxGeometry x="2070" y="510" width="360" height="80" as="geometry" />
        </mxCell>
        <mxCell id="-seAESRT9o7vdsMmAVrN-24" value="Present result" style="text;strokeColor=none;fillColor=none;html=1;align=center;verticalAlign=middle;whiteSpace=wrap;rounded=0;fontSize=20;fontFamily=Architects Daughter;" parent="WIyWlLk6GJQsqaUBKTNV-1" vertex="1">
          <mxGeometry x="1620" y="510" width="250" height="30" as="geometry" />
        </mxCell>
        <mxCell id="-seAESRT9o7vdsMmAVrN-25" value="&lt;font style=&quot;font-size: 15px;&quot;&gt;Present Dynamic Maze &amp;amp; The Move of Objects in DyMaze &amp;amp; Conclusion about Result&lt;br&gt;&lt;/font&gt;" style="ellipse;whiteSpace=wrap;html=1;sketch=1;hachureGap=4;jiggle=2;curveFitting=1;fontFamily=Architects Daughter;fontSource=https%3A%2F%2Ffonts.googleapis.com%2Fcss%3Ffamily%3DArchitects%2BDaughter;fontSize=20;fontStyle=1" parent="WIyWlLk6GJQsqaUBKTNV-1" vertex="1">
          <mxGeometry x="1750" y="680" width="320" height="120" as="geometry" />
        </mxCell>
        <mxCell id="-seAESRT9o7vdsMmAVrN-26" value="&lt;font style=&quot;font-size: 15px;&quot;&gt;Setup para of problem:&lt;br&gt;Size of maze, Number of object,&lt;br&gt;Start - End Point, How Maze Be Change,&lt;br&gt;***Export HanoiMap =&amp;gt; Maze =&amp;gt; Problem&lt;br&gt;&lt;/font&gt;" style="ellipse;whiteSpace=wrap;html=1;sketch=1;hachureGap=4;jiggle=2;curveFitting=1;fontFamily=Architects Daughter;fontSource=https%3A%2F%2Ffonts.googleapis.com%2Fcss%3Ffamily%3DArchitects%2BDaughter;fontSize=20;fontStyle=1" parent="WIyWlLk6GJQsqaUBKTNV-1" vertex="1">
          <mxGeometry x="1810" y="850" width="410" height="120" as="geometry" />
        </mxCell>
        <mxCell id="-seAESRT9o7vdsMmAVrN-27" value="" style="edgeStyle=none;curved=1;rounded=0;sketch=1;hachureGap=4;jiggle=2;curveFitting=1;orthogonalLoop=1;jettySize=auto;html=1;fontFamily=Architects Daughter;fontSource=https%3A%2F%2Ffonts.googleapis.com%2Fcss%3Ffamily%3DArchitects%2BDaughter;fontSize=16;startSize=8;endSize=8;entryX=0;entryY=0.5;entryDx=0;entryDy=0;" parent="WIyWlLk6GJQsqaUBKTNV-1" source="-seAESRT9o7vdsMmAVrN-15" target="-seAESRT9o7vdsMmAVrN-19" edge="1">
          <mxGeometry relative="1" as="geometry">
            <mxPoint x="1340" y="1170" as="sourcePoint" />
            <mxPoint x="2060" y="1170" as="targetPoint" />
          </mxGeometry>
        </mxCell>
        <mxCell id="-seAESRT9o7vdsMmAVrN-28" value="Export Result - Test Time/Space of each prgram, and function activity on CPU, GPU, RAM" style="text;strokeColor=none;fillColor=none;html=1;align=center;verticalAlign=middle;whiteSpace=wrap;rounded=0;fontSize=20;fontFamily=Architects Daughter;" parent="WIyWlLk6GJQsqaUBKTNV-1" vertex="1">
          <mxGeometry x="1480" y="1180" width="480" height="30" as="geometry" />
        </mxCell>
        <mxCell id="-seAESRT9o7vdsMmAVrN-29" value="Static Maze" style="text;strokeColor=none;fillColor=none;html=1;align=center;verticalAlign=middle;whiteSpace=wrap;rounded=0;fontSize=20;fontFamily=Architects Daughter;" parent="WIyWlLk6GJQsqaUBKTNV-1" vertex="1">
          <mxGeometry x="1460" y="735" width="140" height="30" as="geometry" />
        </mxCell>
        <mxCell id="-seAESRT9o7vdsMmAVrN-30" value="Dynamic Maze" style="text;strokeColor=none;fillColor=none;html=1;align=center;verticalAlign=middle;whiteSpace=wrap;rounded=0;fontSize=20;fontFamily=Architects Daughter;" parent="WIyWlLk6GJQsqaUBKTNV-1" vertex="1">
          <mxGeometry x="1430" y="960" width="140" height="30" as="geometry" />
        </mxCell>
        <mxCell id="-seAESRT9o7vdsMmAVrN-31" value="Document&lt;br&gt;Report" style="ellipse;whiteSpace=wrap;html=1;hachureGap=4;fontFamily=Architects Daughter;fontSource=https%3A%2F%2Ffonts.googleapis.com%2Fcss%3Ffamily%3DArchitects%2BDaughter;fontSize=15;fontStyle=1;labelBackgroundColor=none;labelBorderColor=none;sketch=1;curveFitting=1;jiggle=2;fillColor=#f8cecc;strokeColor=#b85450;" parent="WIyWlLk6GJQsqaUBKTNV-1" vertex="1">
          <mxGeometry x="1665" y="570" width="160" height="80" as="geometry" />
        </mxCell>
        <mxCell id="-seAESRT9o7vdsMmAVrN-32" value="Slide" style="ellipse;whiteSpace=wrap;html=1;sketch=1;hachureGap=4;jiggle=2;curveFitting=1;fontFamily=Architects Daughter;fontSource=https%3A%2F%2Ffonts.googleapis.com%2Fcss%3Ffamily%3DArchitects%2BDaughter;fontSize=15;fontStyle=1;fillColor=#FFFF00;strokeColor=#d6b656;" parent="WIyWlLk6GJQsqaUBKTNV-1" vertex="1">
          <mxGeometry x="1580" y="880" width="160" height="80" as="geometry" />
        </mxCell>
        <mxCell id="-seAESRT9o7vdsMmAVrN-33" value="&lt;font style=&quot;font-size: 15px;&quot;&gt;Visualization Result &amp;amp; Compare Other Papers&lt;br&gt;&lt;/font&gt;" style="ellipse;whiteSpace=wrap;html=1;sketch=1;hachureGap=4;jiggle=2;curveFitting=1;fontFamily=Architects Daughter;fontSource=https%3A%2F%2Ffonts.googleapis.com%2Fcss%3Ffamily%3DArchitects%2BDaughter;fontSize=20;fontStyle=1;fillColor=#00CCCC;strokeColor=#6c8ebf;" parent="WIyWlLk6GJQsqaUBKTNV-1" vertex="1">
          <mxGeometry x="1970" y="1010" width="210" height="100" as="geometry" />
        </mxCell>
        <mxCell id="-seAESRT9o7vdsMmAVrN-35" value="Harito" style="rounded=0;whiteSpace=wrap;html=1;sketch=1;hachureGap=4;jiggle=2;curveFitting=1;fontFamily=Architects Daughter;fontSource=https%3A%2F%2Ffonts.googleapis.com%2Fcss%3Ffamily%3DArchitects%2BDaughter;fontSize=20;fillColor=#66CC00;strokeColor=#82b366;" parent="WIyWlLk6GJQsqaUBKTNV-1" vertex="1">
          <mxGeometry x="2300" y="650" width="80" height="40" as="geometry" />
        </mxCell>
        <mxCell id="-seAESRT9o7vdsMmAVrN-36" value="D.Anh" style="rounded=0;whiteSpace=wrap;html=1;sketch=1;hachureGap=4;jiggle=2;curveFitting=1;fontFamily=Architects Daughter;fontSource=https%3A%2F%2Ffonts.googleapis.com%2Fcss%3Ffamily%3DArchitects%2BDaughter;fontSize=20;fillColor=#CCCC00;strokeColor=#d79b00;" parent="WIyWlLk6GJQsqaUBKTNV-1" vertex="1">
          <mxGeometry x="2420" y="650" width="80" height="40" as="geometry" />
        </mxCell>
        <mxCell id="-seAESRT9o7vdsMmAVrN-37" value="Thang" style="rounded=0;whiteSpace=wrap;html=1;sketch=1;hachureGap=4;jiggle=2;curveFitting=1;fontFamily=Architects Daughter;fontSource=https%3A%2F%2Ffonts.googleapis.com%2Fcss%3Ffamily%3DArchitects%2BDaughter;fontSize=20;fillColor=#00CCCC;strokeColor=#6c8ebf;" parent="WIyWlLk6GJQsqaUBKTNV-1" vertex="1">
          <mxGeometry x="2420" y="730" width="80" height="40" as="geometry" />
        </mxCell>
        <mxCell id="-seAESRT9o7vdsMmAVrN-38" value="Duc" style="rounded=0;whiteSpace=wrap;html=1;sketch=1;hachureGap=4;jiggle=2;curveFitting=1;fontFamily=Architects Daughter;fontSource=https%3A%2F%2Ffonts.googleapis.com%2Fcss%3Ffamily%3DArchitects%2BDaughter;fontSize=20;fillColor=#FF3333;strokeColor=#b85450;" parent="WIyWlLk6GJQsqaUBKTNV-1" vertex="1">
          <mxGeometry x="2300" y="730" width="80" height="40" as="geometry" />
        </mxCell>
        <mxCell id="-seAESRT9o7vdsMmAVrN-39" style="edgeStyle=none;curved=1;rounded=0;sketch=1;hachureGap=4;jiggle=2;curveFitting=1;orthogonalLoop=1;jettySize=auto;html=1;exitX=0.5;exitY=0;exitDx=0;exitDy=0;fontFamily=Architects Daughter;fontSource=https%3A%2F%2Ffonts.googleapis.com%2Fcss%3Ffamily%3DArchitects%2BDaughter;fontSize=16;startSize=8;endSize=8;" parent="WIyWlLk6GJQsqaUBKTNV-1" source="-seAESRT9o7vdsMmAVrN-36" target="-seAESRT9o7vdsMmAVrN-36" edge="1">
          <mxGeometry relative="1" as="geometry" />
        </mxCell>
      </root>
    </mxGraphModel>
  </diagram>
</mxfile>
